<?xml version="1.0" encoding="UTF-8" standalone="no"?>
<svg width="33px" height="23px" viewBox="0 0 33 23" version="1.1" xmlns="http://www.w3.org/2000/svg" xmlns:xlink="http://www.w3.org/1999/xlink">
    <!-- Generator: sketchtool 3.8.3 (29802) - http://www.bohemiancoding.com/sketch -->
    <title>87425C35-B0D3-46E7-B240-A5498AF7105F</title>
    <desc>Created with sketchtool.</desc>
    <defs></defs>
    <g id="Page-1" stroke="none" stroke-width="1" fill="none" fill-rule="evenodd">
        <g id="Notable-Labs" transform="translate(-675.000000, -1496.000000)" fill="#CCCCCC">
            <g id="Group-14" transform="translate(114.000000, 1437.000000)">
                <path d="M593.029816,69.509878 L593.027068,69.5070732 L583.133939,59.4106341 C582.597451,58.863122 581.727859,58.863122 581.190822,59.4106341 C580.654335,59.9587073 580.654335,60.8467317 581.190822,61.3942439 L588.739569,69.097561 L562.374198,69.097561 C561.615091,69.097561 561,69.7252927 561,70.5 C561,71.2747073 561.615091,71.902439 562.374198,71.902439 L588.739569,71.902439 L581.190822,79.6057561 C580.654335,80.1538293 580.654335,81.0418537 581.190822,81.5893659 C581.459615,81.863122 581.81086,82 582.162655,82 C582.51445,82 582.865695,81.863122 583.133939,81.5893659 L593.027068,71.4929268 L593.029816,71.490122 L594,70.5 L593.029816,69.509878 Z" id="Arrow-Copy-3"></path>
            </g>
        </g>
    </g>
</svg>