<?xml version="1.0" encoding="UTF-8" standalone="no"?>
<svg width="60px" height="60px" viewBox="0 0 60 60" version="1.1" xmlns="http://www.w3.org/2000/svg" xmlns:xlink="http://www.w3.org/1999/xlink">
    <!-- Generator: sketchtool 3.8.3 (29802) - http://www.bohemiancoding.com/sketch -->
    <title>14B71C73-B53C-4558-BA40-984D6BA91745</title>
    <desc>Created with sketchtool.</desc>
    <defs>
        <polygon id="path-1" points="24 0 2.94680776e-15 0 0 14 24 14 24 1.97044575e-15"></polygon>
    </defs>
    <g id="Page-1" stroke="none" stroke-width="1" fill="none" fill-rule="evenodd">
        <g id="Notable-Labs" transform="translate(-1591.000000, -6534.000000)">
            <g id="arrow-to-top" transform="translate(1591.000000, 6534.000000)">
                <path d="M30,60 C46.5685425,60 60,46.5685425 60,30 C60,13.4314575 46.5685425,0 30,0 C13.4314575,0 0,13.4314575 0,30 C0,46.5685425 13.4314575,60 30,60 Z" id="Oval-4" fill="#35363E"></path>
                <g id="Page-1" transform="translate(30.000000, 29.000000) rotate(-180.000000) translate(-30.000000, -29.000000) translate(18.000000, 22.000000)">
                    <mask id="mask-2" fill="white">
                        <use xlink:href="#path-1"></use>
                    </mask>
                    <g id="Clip-2"></g>
                    <path d="M12,14 L0.50144051,2.84015371 C-0.167146837,2.19126094 -0.167146837,1.13750347 0.50144051,0.487501486 C1.17117074,-0.162500495 2.25691088,-0.162500495 2.92664111,0.487501486 L12,9.29469556 L21.0733589,0.487501486 C21.7430891,-0.162500495 22.8288293,-0.162500495 23.4985595,0.487501486 C24.1671468,1.13750347 24.1671468,2.19126094 23.4985595,2.84015371 L12,14 Z" id="Fill-1" fill="#FFFFFF" mask="url(#mask-2)"></path>
                </g>
            </g>
        </g>
    </g>
</svg>