<?xml version="1.0" encoding="UTF-8" standalone="no"?>
<svg width="162px" height="98px" viewBox="0 0 162 98" version="1.1" xmlns="http://www.w3.org/2000/svg" xmlns:xlink="http://www.w3.org/1999/xlink">
    <!-- Generator: sketchtool 3.8.3 (29802) - http://www.bohemiancoding.com/sketch -->
    <title>0D3D2A9C-7748-48DD-BBE2-73E66DE69F6E</title>
    <desc>Created with sketchtool.</desc>
    <defs>
        <polygon id="path-1" points="28.7282376 96.8339214 57.45586 96.8339214 57.45586 0.384261593 28.7282376 0.384261593 0.000615192034 0.384261593 0.000615192034 96.8339214 28.7282376 96.8339214"></polygon>
        <polygon id="path-3" points="17 0 0 0 0 10.8181818 0 21.6363636 17 21.6363636 17 4.57576079e-15"></polygon>
        <polygon id="path-5" points="20.3078921 68.1789855 40.6153493 68.1789855 40.6153493 0.27055153 20.3078921 0.27055153 0.000434877128 0.27055153 0.000434877128 68.1789855 20.3078921 68.1789855"></polygon>
        <polygon id="path-7" points="12.0172414 0 0 0 0 7.61688312 0 15.2337662 12.0172414 15.2337662 12.0172414 3.22170912e-15"></polygon>
        <polygon id="path-9" points="14.913908 50.0699486 29.8274966 50.0699486 29.8274966 0.198690272 14.913908 0.198690272 0.000319369308 0.198690272 0.000319369308 50.0699486 14.913908 50.0699486"></polygon>
        <polygon id="path-11" points="8.82533898 0 -2.84217094e-13 0 -2.84217094e-13 5.59376095 -2.84217094e-13 11.1875219 8.82533898 11.1875219 8.82533898 2.36599018e-15"></polygon>
    </defs>
    <g id="Page-1" stroke="none" stroke-width="1" fill="none" fill-rule="evenodd">
        <g id="Notable-Labs" transform="translate(-452.000000, -1463.000000)">
            <g id="Group-14" transform="translate(114.000000, 1437.000000)">
                <g id="icon2" transform="translate(338.000000, 26.000000)">
                    <g id="Group-13">
                        <g id="Group-12">
                            <g id="Page-1">
                                <g id="Group-3" transform="translate(0.000000, 0.289882)">
                                    <mask id="mask-2" fill="white">
                                        <use xlink:href="#path-1"></use>
                                    </mask>
                                    <g id="Clip-2"></g>
                                    <path d="M54.380515,15.7547253 L51.1246112,15.7547253 L6.33094122,15.7547253 L3.07657536,15.7547253 L3.07657536,3.45835433 L54.380515,3.45835433 L54.380515,15.7547253 Z M7.86892131,33.4307586 L49.5866311,33.4307586 L49.5866311,18.828818 L7.86892131,18.828818 L7.86892131,33.4307586 Z M7.86892131,93.7598286 L49.5866311,93.7598286 L49.5866311,73.3939642 L7.86892131,73.3939642 L7.86892131,93.7598286 Z M7.86892131,71.8569178 L49.5866311,71.8569178 L49.5866311,34.9678049 L7.86892131,34.9678049 L7.86892131,71.8569178 Z M55.9184951,0.384261593 L1.53859528,0.384261593 C0.68809229,0.384261593 0.000615192034,1.07285837 0.000615192034,1.92130796 L0.000615192034,17.2917717 C0.000615192034,18.1402213 0.68809229,18.828818 1.53859528,18.828818 L4.79296114,18.828818 L4.79296114,95.296875 C4.79296114,96.1468616 5.48197622,96.8339214 6.33094122,96.8339214 L51.1246112,96.8339214 C51.9751142,96.8339214 52.6625913,96.1468616 52.6625913,95.296875 L52.6625913,18.828818 L55.9184951,18.828818 C56.7674601,18.828818 57.4564752,18.1402213 57.4564752,17.2917717 L57.4564752,1.92130796 C57.4564752,1.07285837 56.7674601,0.384261593 55.9184951,0.384261593 L55.9184951,0.384261593 Z" id="Fill-1" fill="#19BC9C" mask="url(#mask-2)"></path>
                                </g>
                                <path d="M7.29264017,13.5469065 C7.71712267,13.5469065 8.06163021,13.2026081 8.06163021,12.7783833 L8.06163021,6.43806704 C8.06163021,6.01384224 7.71712267,5.66954385 7.29264017,5.66954385 C6.86815767,5.66954385 6.52365013,6.01384224 6.52365013,6.43806704 L6.52365013,12.7783833 C6.52365013,13.2026081 6.86815767,13.5469065 7.29264017,13.5469065" id="Fill-4" fill="#19BC9C"></path>
                                <path d="M13.4445605,13.5469065 C13.869043,13.5469065 14.2135506,13.2026081 14.2135506,12.7783833 L14.2135506,6.43806704 C14.2135506,6.01384224 13.869043,5.66954385 13.4445605,5.66954385 C13.020078,5.66954385 12.6755705,6.01384224 12.6755705,6.43806704 L12.6755705,12.7783833 C12.6755705,13.2026081 13.020078,13.5469065 13.4445605,13.5469065" id="Fill-6" fill="#19BC9C"></path>
                                <path d="M19.5964809,13.5469065 C20.0209634,13.5469065 20.3654709,13.2026081 20.3654709,12.7783833 L20.3654709,6.43806704 C20.3654709,6.01384224 20.0209634,5.66954385 19.5964809,5.66954385 C19.1719983,5.66954385 18.8274908,6.01384224 18.8274908,6.43806704 L18.8274908,12.7783833 C18.8274908,13.2026081 19.1719983,13.5469065 19.5964809,13.5469065" id="Fill-8" fill="#19BC9C"></path>
                                <path d="M25.7484012,13.5469065 C26.1728837,13.5469065 26.5173912,13.2026081 26.5173912,12.7783833 L26.5173912,6.43806704 C26.5173912,6.01384224 26.1728837,5.66954385 25.7484012,5.66954385 C25.3239187,5.66954385 24.9794112,6.01384224 24.9794112,6.43806704 L24.9794112,12.7783833 C24.9794112,13.2026081 25.3239187,13.5469065 25.7484012,13.5469065" id="Fill-10" fill="#19BC9C"></path>
                                <path d="M31.9003215,13.5469065 C32.324804,13.5469065 32.6693116,13.2026081 32.6693116,12.7783833 L32.6693116,6.43806704 C32.6693116,6.01384224 32.324804,5.66954385 31.9003215,5.66954385 C31.475839,5.66954385 31.1313315,6.01384224 31.1313315,6.43806704 L31.1313315,12.7783833 C31.1313315,13.2026081 31.475839,13.5469065 31.9003215,13.5469065" id="Fill-12" fill="#19BC9C"></path>
                                <path d="M38.0522419,13.5469065 C38.4767244,13.5469065 38.8212319,13.2026081 38.8212319,12.7783833 L38.8212319,6.43806704 C38.8212319,6.01384224 38.4767244,5.66954385 38.0522419,5.66954385 C37.6277594,5.66954385 37.2832518,6.01384224 37.2832518,6.43806704 L37.2832518,12.7783833 C37.2832518,13.2026081 37.6277594,13.5469065 38.0522419,13.5469065" id="Fill-14" fill="#19BC9C"></path>
                                <path d="M44.2041622,13.5469065 C44.6286447,13.5469065 44.9731523,13.2026081 44.9731523,12.7783833 L44.9731523,6.43806704 C44.9731523,6.01384224 44.6286447,5.66954385 44.2041622,5.66954385 C43.7796797,5.66954385 43.4351722,6.01384224 43.4351722,6.43806704 L43.4351722,12.7783833 C43.4351722,13.2026081 43.7796797,13.5469065 44.2041622,13.5469065" id="Fill-16" fill="#19BC9C"></path>
                                <path d="M50.3560826,13.5469065 C50.7805651,13.5469065 51.1250726,13.2026081 51.1250726,12.7783833 L51.1250726,6.43806704 C51.1250726,6.01384224 50.7805651,5.66954385 50.3560826,5.66954385 C49.9316001,5.66954385 49.5870925,6.01384224 49.5870925,6.43806704 L49.5870925,12.7783833 C49.5870925,13.2026081 49.9316001,13.5469065 50.3560826,13.5469065" id="Fill-18" fill="#19BC9C"></path>
                                <g transform="translate(20.321429, 42.681818)">
                                    <mask id="mask-4" fill="white">
                                        <use xlink:href="#path-3"></use>
                                    </mask>
                                    <g id="Clip-2"></g>
                                    <path d="M8.53999486,4.90254017 C8.53999486,6.39601057 7.62716203,7.12193716 5.74929961,7.12193716 L3.03392733,7.12193716 L3.03392733,2.77603731 L5.74929961,2.77603731 C7.62716203,2.77603731 8.53999486,3.47169684 8.53999486,4.90254017 M16.7284554,19.308778 L13.2959272,14.4650815 L16.3810741,10.1044506 C16.6968605,9.65817237 16.7348884,9.08092469 16.480419,8.5978591 C16.2258681,8.11487401 15.7255608,7.81477928 15.1746039,7.81477928 C14.697667,7.81477928 14.2484165,8.04459968 13.9728566,8.4293778 L11.3776753,12.0538589 L9.15943458,9.14757664 C10.7068531,8.36900467 11.4611413,6.95659527 11.4611413,4.84675539 C11.4611413,3.33855395 10.9307863,2.09736276 9.92740303,1.25753218 C8.93053422,0.42309494 7.52480424,0 5.74929961,0 L1.46232398,0 C0.656001893,0 0,0.648487983 0,1.44557438 L0,12.3219961 C0,13.1488666 0.680512391,13.8215844 1.51696366,13.8215844 C2.35341494,13.8215844 3.03392733,13.1488666 3.03392733,12.3219961 L3.03392733,9.89805497 L5.74929961,9.89805497 C5.88251946,9.89805497 6.01858937,9.89805497 6.15262352,9.89306412 L9.55200969,14.5598271 L6.11117553,19.3485438 C5.79229477,19.7923266 5.75109108,20.3685278 6.00376907,20.8522373 C6.25636562,21.3358664 6.75537004,21.6363636 7.30608266,21.6363636 C7.77919226,21.6363636 8.22551133,21.4089582 8.49984976,21.0279634 L11.3889941,17.0174162 L14.2864444,21.0183842 C14.5666458,21.4053358 15.0215151,21.6363636 15.503012,21.6363636 C16.0630891,21.6363636 16.5716208,21.3312781 16.8302432,20.8401627 C17.0887842,20.3490474 17.0497791,19.7622205 16.7284554,19.308778" id="Fill-1" fill="#7D5FFF" mask="url(#mask-4)"></path>
                                </g>
                            </g>
                        </g>
                    </g>
                    <g id="Group-13-Copy" transform="translate(92.847873, 48.714449) rotate(13.000000) translate(-92.847873, -48.714449) translate(72.347873, 13.714449)">
                        <g id="Group-12" transform="translate(0.000000, -0.000000)">
                            <g id="Page-1">
                                <g id="Group-3" transform="translate(-0.000000, 0.204100)">
                                    <mask id="mask-6" fill="white">
                                        <use xlink:href="#path-5"></use>
                                    </mask>
                                    <g id="Clip-2"></g>
                                    <path d="M38.4413986,11.0926127 L36.1398114,11.0926127 L4.47532052,11.0926127 L2.17482052,11.0926127 L2.17482052,2.43496377 L38.4413986,2.43496377 L38.4413986,11.0926127 Z M5.56251334,23.5379831 L35.0526186,23.5379831 L35.0526186,13.2570249 L5.56251334,13.2570249 L5.56251334,23.5379831 Z M5.56251334,66.0145732 L35.0526186,66.0145732 L35.0526186,51.6753422 L5.56251334,51.6753422 L5.56251334,66.0145732 Z M5.56251334,50.593136 L35.0526186,50.593136 L35.0526186,24.6201892 L5.56251334,24.6201892 L5.56251334,50.593136 Z M39.5285914,0.27055153 L1.0876277,0.27055153 C0.486410067,0.27055153 0.000434877128,0.755379871 0.000434877128,1.35275765 L0.000434877128,12.1748188 C0.000434877128,12.7721966 0.486410067,13.2570249 1.0876277,13.2570249 L3.3881277,13.2570249 L3.3881277,67.0967793 C3.3881277,67.6952393 3.87519008,68.1789855 4.47532052,68.1789855 L36.1398114,68.1789855 C36.741029,68.1789855 37.2270042,67.6952393 37.2270042,67.0967793 L37.2270042,13.2570249 L39.5285914,13.2570249 C40.1287218,13.2570249 40.6157842,12.7721966 40.6157842,12.1748188 L40.6157842,1.35275765 C40.6157842,0.755379871 40.1287218,0.27055153 39.5285914,0.27055153 L39.5285914,0.27055153 Z" id="Fill-1" fill="#19BC9C" mask="url(#mask-6)"></path>
                                </g>
                                <path d="M5.15514219,9.53812805 C5.45520741,9.53812805 5.6987386,9.29571388 5.6987386,8.99702499 L5.6987386,4.53292475 C5.6987386,4.23423586 5.45520741,3.99182169 5.15514219,3.99182169 C4.85507697,3.99182169 4.61154578,4.23423586 4.61154578,4.53292475 L4.61154578,8.99702499 C4.61154578,9.29571388 4.85507697,9.53812805 5.15514219,9.53812805" id="Fill-4" fill="#19BC9C"></path>
                                <path d="M9.50391347,9.53812805 C9.80397868,9.53812805 10.0475099,9.29571388 10.0475099,8.99702499 L10.0475099,4.53292475 C10.0475099,4.23423586 9.80397868,3.99182169 9.50391347,3.99182169 C9.20384825,3.99182169 8.96031706,4.23423586 8.96031706,4.53292475 L8.96031706,8.99702499 C8.96031706,9.29571388 9.20384825,9.53812805 9.50391347,9.53812805" id="Fill-6" fill="#19BC9C"></path>
                                <path d="M13.8526847,9.53812805 C14.15275,9.53812805 14.3962812,9.29571388 14.3962812,8.99702499 L14.3962812,4.53292475 C14.3962812,4.23423586 14.15275,3.99182169 13.8526847,3.99182169 C13.5526195,3.99182169 13.3090883,4.23423586 13.3090883,4.53292475 L13.3090883,8.99702499 C13.3090883,9.29571388 13.5526195,9.53812805 13.8526847,9.53812805" id="Fill-8" fill="#19BC9C"></path>
                                <path d="M18.201456,9.53812805 C18.5015212,9.53812805 18.7450524,9.29571388 18.7450524,8.99702499 L18.7450524,4.53292475 C18.7450524,4.23423586 18.5015212,3.99182169 18.201456,3.99182169 C17.9013908,3.99182169 17.6578596,4.23423586 17.6578596,4.53292475 L17.6578596,8.99702499 C17.6578596,9.29571388 17.9013908,9.53812805 18.201456,9.53812805" id="Fill-10" fill="#19BC9C"></path>
                                <path d="M22.5502273,9.53812805 C22.8502925,9.53812805 23.0938237,9.29571388 23.0938237,8.99702499 L23.0938237,4.53292475 C23.0938237,4.23423586 22.8502925,3.99182169 22.5502273,3.99182169 C22.2501621,3.99182169 22.0066309,4.23423586 22.0066309,4.53292475 L22.0066309,8.99702499 C22.0066309,9.29571388 22.2501621,9.53812805 22.5502273,9.53812805" id="Fill-12" fill="#19BC9C"></path>
                                <path d="M26.8989986,9.53812805 C27.1990638,9.53812805 27.442595,9.29571388 27.442595,8.99702499 L27.442595,4.53292475 C27.442595,4.23423586 27.1990638,3.99182169 26.8989986,3.99182169 C26.5989334,3.99182169 26.3554022,4.23423586 26.3554022,4.53292475 L26.3554022,8.99702499 C26.3554022,9.29571388 26.5989334,9.53812805 26.8989986,9.53812805" id="Fill-14" fill="#19BC9C"></path>
                                <path d="M31.2477698,9.53812805 C31.5478351,9.53812805 31.7913663,9.29571388 31.7913663,8.99702499 L31.7913663,4.53292475 C31.7913663,4.23423586 31.5478351,3.99182169 31.2477698,3.99182169 C30.9477046,3.99182169 30.7041734,4.23423586 30.7041734,4.53292475 L30.7041734,8.99702499 C30.7041734,9.29571388 30.9477046,9.53812805 31.2477698,9.53812805" id="Fill-16" fill="#19BC9C"></path>
                                <path d="M35.5965411,9.53812805 C35.8966063,9.53812805 36.1401375,9.29571388 36.1401375,8.99702499 L36.1401375,4.53292475 C36.1401375,4.23423586 35.8966063,3.99182169 35.5965411,3.99182169 C35.2964759,3.99182169 35.0529447,4.23423586 35.0529447,4.53292475 L35.0529447,8.99702499 C35.0529447,9.29571388 35.2964759,9.53812805 35.5965411,9.53812805" id="Fill-18" fill="#19BC9C"></path>
                                <g transform="translate(14.365148, 30.051484)">
                                    <mask id="mask-8" fill="white">
                                        <use xlink:href="#path-7"></use>
                                    </mask>
                                    <g id="Clip-2"></g>
                                    <path d="M6.03689292,3.45178849 C6.03689292,4.50331356 5.39161454,5.01442515 4.06416007,5.01442515 L2.14467277,5.01442515 L2.14467277,1.95455688 L4.06416007,1.95455688 C5.39161454,1.95455688 6.03689292,2.44435798 6.03689292,3.45178849 M11.8252875,13.5949559 L9.39884506,10.1845982 L11.5797248,7.11435808 C11.8029531,6.80014177 11.8298349,6.39371228 11.6499513,6.05359468 C11.4700102,5.71353374 11.1163447,5.50224255 10.7268752,5.50224255 C10.3897302,5.50224255 10.0721565,5.66405488 9.87736416,5.93497009 L8.04283947,8.48690067 L6.47477272,6.44064069 C7.56863757,5.89246247 8.10184128,4.89801095 8.10184128,3.41251145 C8.10184128,2.35061451 7.72693512,1.4767146 7.01764697,0.885405312 C6.31296384,0.297893376 5.31925817,0 4.06416007,0 L1.03371178,0 C0.463725476,0 0,0.456588478 0,1.01780237 L0,8.67569117 C0,9.25787548 0.481051863,9.73152368 1.07233638,9.73152368 C1.6636209,9.73152368 2.14467277,9.25787548 2.14467277,8.67569117 L2.14467277,6.9690387 L4.06416007,6.9690387 C4.15833272,6.9690387 4.25452007,6.9690387 4.34926835,6.96552474 L6.75228272,10.2513068 L4.31996891,13.6229543 C4.0945532,13.9354136 4.06542645,14.3411063 4.24404365,14.6816773 C4.42260329,15.0221917 4.77534779,15.2337662 5.16464464,15.2337662 C5.49908419,15.2337662 5.81458559,15.0736542 6.00851448,14.8054028 L8.05084069,11.9816502 L10.0990383,14.7986583 C10.2971117,15.0711038 10.6186572,15.2337662 10.9590257,15.2337662 C11.3549423,15.2337662 11.7144216,15.0189611 11.8972409,14.6731758 C12.0800026,14.3273905 12.0524301,13.9142165 11.8252875,13.5949559" id="Fill-1" fill="#7D5FFF" mask="url(#mask-8)"></path>
                                </g>
                            </g>
                        </g>
                    </g>
                    <g id="Group-13-Copy-2" transform="translate(144.685442, 59.384442) rotate(-11.000000) translate(-144.685442, -59.384442) translate(129.685442, 33.384442)">
                        <g id="Group-12" transform="translate(-0.000000, -0.000000)">
                            <g id="Page-1">
                                <g id="Group-3" transform="translate(-0.000000, 0.149889)">
                                    <mask id="mask-10" fill="white">
                                        <use xlink:href="#path-9"></use>
                                    </mask>
                                    <g id="Clip-2"></g>
                                    <path d="M28.2309694,8.14630116 L26.5407073,8.14630116 L3.28662955,8.14630116 L1.59716591,8.14630116 L1.59716591,1.78821245 L28.2309694,1.78821245 L28.2309694,8.14630116 Z M4.08505282,17.2860537 L25.742284,17.2860537 L25.742284,9.73582334 L4.08505282,9.73582334 L4.08505282,17.2860537 Z M4.08505282,48.4804264 L25.742284,48.4804264 L25.742284,37.949842 L4.08505282,37.949842 L4.08505282,48.4804264 Z M4.08505282,37.1550809 L25.742284,37.1550809 L25.742284,18.0808148 L4.08505282,18.0808148 L4.08505282,37.1550809 Z M29.0293926,0.198690272 L0.79874264,0.198690272 C0.357214571,0.198690272 0.000319369308,0.55474324 0.000319369308,0.993451361 L0.000319369308,8.94106225 C0.000319369308,9.37977037 0.357214571,9.73582334 0.79874264,9.73582334 L2.48820628,9.73582334 L2.48820628,49.2751875 C2.48820628,49.7146904 2.84589991,50.0699486 3.28662955,50.0699486 L26.5407073,50.0699486 C26.9822354,50.0699486 27.3391306,49.7146904 27.3391306,49.2751875 L27.3391306,9.73582334 L29.0293926,9.73582334 C29.4701223,9.73582334 29.8278159,9.37977037 29.8278159,8.94106225 L29.8278159,0.993451361 C29.8278159,0.55474324 29.4701223,0.198690272 29.0293926,0.198690272 L29.0293926,0.198690272 Z" id="Fill-1" fill="#19BC9C" mask="url(#mask-10)"></path>
                                </g>
                                <path d="M3.78588362,7.00470355 C4.00624845,7.00470355 4.18509526,6.82667706 4.18509526,6.607323 L4.18509526,3.32893351 C4.18509526,3.10957945 4.00624845,2.93155296 3.78588362,2.93155296 C3.5655188,2.93155296 3.38667199,3.10957945 3.38667199,3.32893351 L3.38667199,6.607323 C3.38667199,6.82667706 3.5655188,7.00470355 3.78588362,7.00470355" id="Fill-4" fill="#19BC9C"></path>
                                <path d="M6.97957671,7.00470355 C7.19994153,7.00470355 7.37878834,6.82667706 7.37878834,6.607323 L7.37878834,3.32893351 C7.37878834,3.10957945 7.19994153,2.93155296 6.97957671,2.93155296 C6.75921188,2.93155296 6.58036507,3.10957945 6.58036507,3.32893351 L6.58036507,6.607323 C6.58036507,6.82667706 6.75921188,7.00470355 6.97957671,7.00470355" id="Fill-6" fill="#19BC9C"></path>
                                <path d="M10.1732698,7.00470355 C10.3936346,7.00470355 10.5724814,6.82667706 10.5724814,6.607323 L10.5724814,3.32893351 C10.5724814,3.10957945 10.3936346,2.93155296 10.1732698,2.93155296 C9.95290497,2.93155296 9.77405815,3.10957945 9.77405815,3.32893351 L9.77405815,6.607323 C9.77405815,6.82667706 9.95290497,7.00470355 10.1732698,7.00470355" id="Fill-8" fill="#19BC9C"></path>
                                <path d="M13.3669629,7.00470355 C13.5873277,7.00470355 13.7661745,6.82667706 13.7661745,6.607323 L13.7661745,3.32893351 C13.7661745,3.10957945 13.5873277,2.93155296 13.3669629,2.93155296 C13.1465981,2.93155296 12.9677512,3.10957945 12.9677512,3.32893351 L12.9677512,6.607323 C12.9677512,6.82667706 13.1465981,7.00470355 13.3669629,7.00470355" id="Fill-10" fill="#19BC9C"></path>
                                <path d="M16.560656,7.00470355 C16.7810208,7.00470355 16.9598676,6.82667706 16.9598676,6.607323 L16.9598676,3.32893351 C16.9598676,3.10957945 16.7810208,2.93155296 16.560656,2.93155296 C16.3402911,2.93155296 16.1614443,3.10957945 16.1614443,3.32893351 L16.1614443,6.607323 C16.1614443,6.82667706 16.3402911,7.00470355 16.560656,7.00470355" id="Fill-12" fill="#19BC9C"></path>
                                <path d="M19.754349,7.00470355 C19.9747139,7.00470355 20.1535607,6.82667706 20.1535607,6.607323 L20.1535607,3.32893351 C20.1535607,3.10957945 19.9747139,2.93155296 19.754349,2.93155296 C19.5339842,2.93155296 19.3551374,3.10957945 19.3551374,3.32893351 L19.3551374,6.607323 C19.3551374,6.82667706 19.5339842,7.00470355 19.754349,7.00470355" id="Fill-14" fill="#19BC9C"></path>
                                <path d="M22.9480421,7.00470355 C23.1684069,7.00470355 23.3472538,6.82667706 23.3472538,6.607323 L23.3472538,3.32893351 C23.3472538,3.10957945 23.1684069,2.93155296 22.9480421,2.93155296 C22.7276773,2.93155296 22.5488305,3.10957945 22.5488305,3.32893351 L22.5488305,6.607323 C22.5488305,6.82667706 22.7276773,7.00470355 22.9480421,7.00470355" id="Fill-16" fill="#19BC9C"></path>
                                <path d="M26.1417352,7.00470355 C26.3621,7.00470355 26.5409468,6.82667706 26.5409468,6.607323 L26.5409468,3.32893351 C26.5409468,3.10957945 26.3621,2.93155296 26.1417352,2.93155296 C25.9213704,2.93155296 25.7425236,3.10957945 25.7425236,3.32893351 L25.7425236,6.607323 C25.7425236,6.82667706 25.9213704,7.00470355 26.1417352,7.00470355" id="Fill-18" fill="#19BC9C"></path>
                                <g transform="translate(10.549617, 22.069502)">
                                    <mask id="mask-12" fill="white">
                                        <use xlink:href="#path-11"></use>
                                    </mask>
                                    <g id="Clip-2"></g>
                                    <path d="M4.43343233,2.53495811 C4.43343233,3.30718736 3.9595465,3.68254247 2.98467753,3.68254247 L1.57502571,3.68254247 L1.57502571,1.43540655 L2.98467753,1.43540655 C3.9595465,1.43540655 4.43343233,1.79511146 4.43343233,2.53495811 M8.68436999,9.98399639 L6.90241554,7.4794646 L8.50403128,5.2247117 C8.66796788,4.99395447 8.6877096,4.69547681 8.55560494,4.44569793 C8.42345801,4.19596066 8.16372968,4.04079057 7.87770725,4.04079057 C7.63011141,4.04079057 7.39688856,4.15962389 7.25383507,4.35858124 L5.90657893,6.23269293 L4.75500677,4.72994056 C5.55832991,4.32736409 5.94990925,3.59704908 5.94990925,2.50611346 C5.94990925,1.72626722 5.67458201,1.08448407 5.15368806,0.650232593 C4.63617599,0.218769844 3.90640872,0 2.98467753,0 L0.759147344,0 C0.34055524,0 -2.84217094e-13,0.335313901 -2.84217094e-13,0.747463635 L-2.84217094e-13,6.37133873 C-2.84217094e-13,6.79888893 0.353279561,7.14673132 0.787512856,7.14673132 C1.22174615,7.14673132 1.57502571,6.79888893 1.57502571,6.37133873 L1.57502571,5.11799064 L2.98467753,5.11799064 C3.05383696,5.11799064 3.12447596,5.11799064 3.19405813,5.11541003 L4.95880727,7.52845473 L3.17254092,10.0045581 C3.00699793,10.234025 2.98560755,10.5319616 3.11678219,10.7820734 C3.24791456,11.0321437 3.50696651,11.1875219 3.79286212,11.1875219 C4.0384711,11.1875219 4.27017211,11.0699373 4.41259149,10.8729362 L5.91245494,8.79920118 L7.41663028,10.8679831 C7.56209336,11.0680642 7.79823308,11.1875219 8.04819623,11.1875219 C8.3389533,11.1875219 8.60295125,11.0297712 8.73721186,10.77583 C8.87143019,10.5218888 8.85118119,10.2184581 8.68436999,9.98399639" id="Fill-1" fill="#7D5FFF" mask="url(#mask-12)"></path>
                                </g>
                            </g>
                        </g>
                    </g>
                </g>
            </g>
        </g>
    </g>
</svg>