<?xml version="1.0" encoding="UTF-8" standalone="no"?>
<svg width="171px" height="107px" viewBox="0 0 171 107" version="1.1" xmlns="http://www.w3.org/2000/svg" xmlns:xlink="http://www.w3.org/1999/xlink">
    <!-- Generator: sketchtool 3.8.3 (29802) - http://www.bohemiancoding.com/sketch -->
    <title>9F968048-2CB2-4366-B495-F2DE53081F77</title>
    <desc>Created with sketchtool.</desc>
    <defs></defs>
    <g id="Page-1" stroke="none" stroke-width="1" fill="none" fill-rule="evenodd">
        <g id="Notable-Labs" transform="translate(-129.000000, -1437.000000)">
            <g id="Group-14" transform="translate(114.000000, 1437.000000)">
                <g id="icon1" transform="translate(15.000000, 0.000000)">
                    <g id="Briefcase">
                        <path d="M167.705882,101.805057 C167.705882,102.820326 166.884118,103.646218 165.876543,103.646218 L164.044587,103.646218 L164.044587,37.6248221 L165.876543,37.6248221 C166.884118,37.6248221 167.705882,38.4507142 167.705882,39.4633526 L167.705882,101.805057 Z M74.4488567,101.805057 L74.4488567,39.4633526 C74.4488567,38.4507142 75.2680028,37.6248221 76.2781956,37.6248221 L78.1101515,37.6248221 L78.1101515,103.646218 L76.2781956,103.646218 C75.2680028,103.646218 74.4488567,102.820326 74.4488567,101.805057 L74.4488567,101.805057 Z M84.7863223,32.5379579 C84.7863223,32.4774626 84.8334298,32.4274882 84.8936226,32.4274882 L90.0623554,32.4274882 C90.1225482,32.4274882 90.1696556,32.4774626 90.1696556,32.5379579 L90.1696556,34.3791186 L84.7863223,34.3791186 L84.7863223,32.5379579 Z M105.461253,34.268649 C105.461253,33.2533803 106.283017,32.4274882 107.293209,32.4274882 C108.303402,32.4274882 109.125165,33.2533803 109.125165,34.268649 L109.125165,34.3791186 L105.461253,34.3791186 L105.461253,34.268649 Z M110.739904,22.0380809 L131.414835,22.0380809 C132.425028,22.0380809 133.244174,22.863973 133.244174,23.8792417 L133.244174,29.4500682 C131.244725,30.1286675 129.800096,32.0303235 129.800096,34.268649 L129.800096,34.3791186 L112.354642,34.3791186 L112.354642,34.268649 C112.354642,32.0303235 110.910014,30.1286675 108.907948,29.4500682 L108.907948,23.8792417 C108.907948,22.863973 109.729711,22.0380809 110.739904,22.0380809 L110.739904,22.0380809 Z M136.690868,34.3791186 L133.03219,34.3791186 L133.03219,34.268649 C133.03219,33.2533803 133.851336,32.4274882 134.861529,32.4274882 C135.869105,32.4274882 136.690868,33.2533803 136.690868,34.268649 L136.690868,34.3791186 Z M151.985083,32.5379579 C151.985083,32.4774626 152.03219,32.4274882 152.089766,32.4274882 L157.261116,32.4274882 C157.318691,32.4274882 157.368416,32.4774626 157.368416,32.5379579 L157.368416,34.3791186 L151.985083,34.3791186 L151.985083,32.5379579 Z M81.3396281,103.646218 L160.81511,103.646218 L160.81511,37.6248221 L81.3396281,37.6248221 L81.3396281,103.646218 Z M165.876543,34.3791186 L160.597893,34.3791186 L160.597893,32.5379579 C160.597893,30.6862761 159.100923,29.1817848 157.261116,29.1817848 L152.089766,29.1817848 C150.249959,29.1817848 148.752989,30.6862761 148.752989,32.5379579 L148.752989,34.3791186 L139.922961,34.3791186 L139.922961,34.268649 C139.922961,32.0303235 138.478333,30.1286675 136.476267,29.4500682 L136.476267,23.8792417 C136.476267,21.0754168 134.204642,18.7923775 131.414835,18.7923775 L110.739904,18.7923775 C107.947479,18.7923775 105.678471,21.0754168 105.678471,23.8792417 L105.678471,29.4500682 C103.676405,30.1286675 102.231777,32.0303235 102.231777,34.268649 L102.231777,34.3791186 L93.4017493,34.3791186 L93.4017493,32.5379579 C93.4017493,30.6862761 91.9021625,29.1817848 90.0623554,29.1817848 L84.8936226,29.1817848 C83.0511983,29.1817848 81.5542287,30.6862761 81.5542287,32.5379579 L81.5542287,34.3791186 L76.2781956,34.3791186 C73.4883884,34.3791186 71.2167631,36.6595278 71.2167631,39.4633526 L71.2167631,101.805057 C71.2167631,104.608882 73.4883884,106.891921 76.2781956,106.891921 L165.876543,106.891921 C168.66635,106.891921 170.935358,104.608882 170.935358,101.805057 L170.935358,39.4633526 C170.935358,36.6595278 168.66635,34.3791186 165.876543,34.3791186 L165.876543,34.3791186 Z" id="Fill-1" fill="#19BC9C"></path>
                        <path d="M136.61,69.6136757 L123.323085,69.6136757 L123.323085,56.2599995 C123.323085,55.0132706 122.318127,54.0032624 121.077631,54.0032624 C119.837135,54.0032624 118.832176,55.0132706 118.832176,56.2599995 L118.832176,69.6136757 L105.542645,69.6136757 C104.302149,69.6136757 103.29719,70.6236839 103.29719,71.8704127 C103.29719,73.1171416 104.302149,74.1271498 105.542645,74.1271498 L118.832176,74.1271498 L118.832176,87.480826 C118.832176,88.7275549 119.837135,89.7375631 121.077631,89.7375631 C122.318127,89.7375631 123.323085,88.7275549 123.323085,87.480826 L123.323085,74.1271498 L136.61,74.1271498 C137.850496,74.1271498 138.855455,73.1171416 138.855455,71.8704127 C138.855455,70.6236839 137.850496,69.6136757 136.61,69.6136757" id="Fill-3" fill="#19BC9C"></path>
                        <path d="M59.8753857,55.9669919 L33.0136777,55.9669919 C32.042741,55.9669919 31.255,55.1752928 31.255,54.1994775 C31.255,53.2236623 32.042741,52.4345934 33.0136777,52.4345934 L59.8753857,52.4345934 C60.8463223,52.4345934 61.6340634,53.2236623 61.6340634,54.1994775 C61.6340634,55.1752928 60.8463223,55.9669919 59.8753857,55.9669919" id="Fill-5" fill="#19BC9C"></path>
                        <path d="M52.0613085,67.7470016 L1.75841598,67.7470016 C0.787479339,67.7470016 -0.000261707989,66.9553025 -0.000261707989,65.9794873 C-0.000261707989,65.0036721 0.787479339,64.2146032 1.75841598,64.2146032 L52.0613085,64.2146032 C53.0322452,64.2146032 53.8199862,65.0036721 53.8199862,65.9794873 C53.8199862,66.9553025 53.0322452,67.7470016 52.0613085,67.7470016" id="Fill-7" fill="#19BC9C"></path>
                        <path d="M55.9683471,79.5278005 L25.1993388,79.5278005 C24.2284022,79.5278005 23.4406612,78.7361013 23.4406612,77.7602861 C23.4406612,76.7844709 24.2284022,75.9927717 25.1993388,75.9927717 L55.9683471,75.9927717 C56.9392837,75.9927717 57.7270248,76.7844709 57.7270248,77.7602861 C57.7270248,78.7361013 56.9392837,79.5278005 55.9683471,79.5278005" id="Fill-10" fill="#19BC9C"></path>
                        <path d="M59.8753857,91.3075472 L15.432135,91.3075472 C14.4611983,91.3075472 13.6734573,90.515848 13.6734573,89.5400328 C13.6734573,88.5642176 14.4611983,87.7725185 15.432135,87.7725185 L59.8753857,87.7725185 C60.8463223,87.7725185 61.6340634,88.5642176 61.6340634,89.5400328 C61.6340634,90.515848 60.8463223,91.3075472 59.8753857,91.3075472" id="Fill-12" fill="#19BC9C"></path>
                        <g id="Group-11" transform="translate(38.716981, 0.000000)" fill="#7D5FFF">
                            <g id="Time">
                                <path d="M14.4648495,25.0311563 C8.37164656,25.0311563 3.41094492,20.0849545 3.41094492,14.0052882 C3.41094492,7.92562183 8.37164656,2.98133796 14.4648495,2.98133796 C20.5599751,2.98133796 25.5206768,7.92562183 25.5206768,14.0052882 C25.5206768,20.0849545 20.5599751,25.0311563 14.4648495,25.0311563 M14.4648495,0.00095893791 C6.72192485,0.00095893791 0.422987427,6.28392013 0.422987427,14.0052882 C0.422987427,21.7285741 6.72192485,28.0115353 14.4648495,28.0115353 C22.2077741,28.0115353 28.5067115,21.7285741 28.5067115,14.0052882 C28.5067115,6.28392013 22.2077741,0.00095893791 14.4648495,0.00095893791" id="Fill-14"></path>
                                <path d="M21.7826535,13.5733825 L15.4721795,13.5733825 L15.4721795,6.00544456 C15.4721795,5.36870978 14.9568818,4.85280119 14.3166052,4.85280119 C13.6782514,4.85280119 13.1610309,5.36870978 13.1610309,6.00544456 L13.1610309,14.7260259 C13.1610309,15.3646786 13.6782514,15.8786693 14.3166052,15.8786693 L21.7826535,15.8786693 C22.4229301,15.8786693 22.9401505,15.3646786 22.9401505,14.7260259 C22.9401505,14.0892911 22.4229301,13.5733825 21.7826535,13.5733825" id="Fill-16"></path>
                            </g>
                        </g>
                    </g>
                </g>
            </g>
        </g>
    </g>
</svg>