<?xml version="1.0" encoding="UTF-8" standalone="no"?>
<svg width="157px" height="111px" viewBox="0 0 157 111" version="1.1" xmlns="http://www.w3.org/2000/svg" xmlns:xlink="http://www.w3.org/1999/xlink">
    <!-- Generator: sketchtool 3.8.3 (29802) - http://www.bohemiancoding.com/sketch -->
    <title>391AAFE7-C6FC-467A-B261-B8825202EA78</title>
    <desc>Created with sketchtool.</desc>
    <defs></defs>
    <g id="Page-1" stroke="none" stroke-width="1" fill="none" fill-rule="evenodd">
        <g id="Notable-Labs" transform="translate(-780.000000, -1447.000000)">
            <g id="Group-14" transform="translate(114.000000, 1437.000000)">
                <g id="icon3" transform="translate(666.000000, 10.000000)">
                    <g id="Page-1">
                        <path d="M50.6283073,66.0726619 C50.2581019,66.0726619 49.8931601,66.2241857 49.6334899,66.4884714 C49.3703108,66.7509952 49.2211759,67.1157095 49.2211759,67.4857095 C49.2211759,67.8609952 49.3703108,68.2239476 49.6334899,68.4864714 C49.8931601,68.7507571 50.2581019,68.900519 50.6283073,68.900519 C50.9985127,68.900519 51.3617,68.7507571 51.6231246,68.4864714 C51.8863038,68.2239476 52.0354387,67.8609952 52.0354387,67.4857095 C52.0354387,67.1157095 51.8863038,66.7509952 51.6231246,66.4884714 C51.3617,66.2241857 50.9985127,66.0726619 50.6283073,66.0726619 L50.6283073,66.0726619 Z" id="Fill-1" fill="#7D5FFF"></path>
                        <path d="M46.1232059,72.1054238 C45.7530005,72.1054238 45.3880587,72.2569476 45.126634,72.5212333 C44.8652094,72.7819952 44.7160745,73.1484714 44.7160745,73.5184714 C44.7160745,73.8902333 44.8652094,74.2567095 45.126634,74.5174714 C45.3880587,74.7817571 45.7530005,74.933281 46.1232059,74.933281 C46.4934113,74.933281 46.8565986,74.7817571 47.1180232,74.5174714 C47.3812024,74.2567095 47.5303373,73.8902333 47.5303373,73.5184714 C47.5303373,73.1484714 47.3812024,72.7819952 47.1180232,72.5212333 C46.8565986,72.2569476 46.4934113,72.1054238 46.1232059,72.1054238" id="Fill-3" fill="#7D5FFF"></path>
                        <path d="M108.706867,68.9003429 C109.077072,68.9003429 109.442014,68.750581 109.703438,68.4862952 C109.964863,68.2237714 110.113998,67.8590571 110.113998,67.4872952 C110.113998,67.1155333 109.964863,66.750819 109.703438,66.4882952 C109.442014,66.2240095 109.077072,66.0724857 108.706867,66.0724857 C108.336661,66.0724857 107.973474,66.2240095 107.712049,66.4882952 C107.44887,66.750819 107.299735,67.1155333 107.299735,67.4872952 C107.299735,67.8590571 107.44887,68.2237714 107.712049,68.4862952 C107.973474,68.750581 108.336661,68.9003429 108.706867,68.9003429" id="Fill-5" fill="#7D5FFF"></path>
                        <path d="M105.704167,64.3761238 C106.074373,64.3761238 106.43756,64.2246 106.698985,63.9620762 C106.962164,63.6995524 107.111299,63.3348381 107.111299,62.9630762 C107.111299,62.5913143 106.962164,62.2248381 106.698985,61.9640762 C106.43756,61.6997905 106.074373,61.5482667 105.704167,61.5482667 C105.333962,61.5482667 104.970775,61.6997905 104.70935,61.9640762 C104.446171,62.2248381 104.297036,62.5913143 104.297036,62.9630762 C104.297036,63.3348381 104.446171,63.6995524 104.70935,63.9620762 C104.970775,64.2246 105.333962,64.3761238 105.704167,64.3761238" id="Fill-7" fill="#7D5FFF"></path>
                        <path d="M105.704167,76.4409429 C106.074373,76.4409429 106.43756,76.291181 106.698985,76.0268952 C106.962164,75.7643714 107.111299,75.3996571 107.111299,75.0278952 C107.111299,74.6561333 106.962164,74.291419 106.698985,74.0288952 C106.43756,73.7646095 106.074373,73.6130857 105.704167,73.6130857 C105.333962,73.6130857 104.970775,73.7646095 104.70935,74.0288952 C104.446171,74.291419 104.297036,74.6561333 104.297036,75.0278952 C104.297036,75.3996571 104.446171,75.7643714 104.70935,76.0268952 C104.970775,76.291181 105.333962,76.4409429 105.704167,76.4409429" id="Fill-9" fill="#7D5FFF"></path>
                        <path d="M108.706867,82.473881 C109.077072,82.473881 109.442014,82.3223571 109.703438,82.0580714 C109.964863,81.7973095 110.113998,81.4308333 110.113998,81.0608333 C110.113998,80.6890714 109.964863,80.3225952 109.703438,80.0618333 C109.442014,79.7975476 109.077072,79.6460238 108.706867,79.6460238 C108.334907,79.6460238 107.973474,79.7975476 107.712049,80.0618333 C107.44887,80.3225952 107.299735,80.6890714 107.299735,81.0608333 C107.299735,81.4308333 107.44887,81.7973095 107.712049,82.0580714 C107.973474,82.3223571 108.336661,82.473881 108.706867,82.473881" id="Fill-11" fill="#7D5FFF"></path>
                        <path d="M79.668201,70.5979381 C79.2979956,70.5979381 78.9348083,70.7477 78.6733837,71.0119857 C78.4102045,71.2745095 78.2610696,71.6392238 78.2610696,72.0109857 C78.2610696,72.3845095 78.4102045,72.7474619 78.6733837,73.0099857 C78.9348083,73.2742714 79.2979956,73.4257952 79.668201,73.4257952 C80.0384064,73.4257952 80.4015937,73.2742714 80.6630183,73.0099857 C80.9261975,72.7474619 81.0753324,72.3845095 81.0753324,72.0109857 C81.0753324,71.6392238 80.9261975,71.2745095 80.6630183,71.0119857 C80.4015937,70.7477 80.0384064,70.5979381 79.668201,70.5979381" id="Fill-13" fill="#7D5FFF"></path>
                        <path d="M78.1656233,78.1383619 C77.7954179,78.1383619 77.4322306,78.2881238 77.1708059,78.5524095 C76.9076267,78.8149333 76.7584919,79.1778857 76.7584919,79.5514095 C76.7584919,79.9249333 76.9076267,80.2878857 77.1708059,80.5504095 C77.4322306,80.8146952 77.7954179,80.966219 78.1656233,80.966219 C78.5358287,80.966219 78.899016,80.8146952 79.1604406,80.5504095 C79.4236198,80.2878857 79.5727547,79.9231714 79.5727547,79.5514095 C79.5727547,79.1796476 79.4236198,78.8149333 79.1604406,78.5524095 C78.899016,78.2881238 78.5358287,78.1383619 78.1656233,78.1383619" id="Fill-15" fill="#7D5FFF"></path>
                        <path d="M50.6283073,78.1383619 C50.2581019,78.1383619 49.8931601,78.2881238 49.6334899,78.5524095 C49.3703108,78.8149333 49.2211759,79.1778857 49.2211759,79.5514095 C49.2211759,79.9231714 49.3703108,80.2878857 49.6334899,80.5504095 C49.8931601,80.8146952 50.2581019,80.966219 50.6283073,80.966219 C50.9985127,80.966219 51.3617,80.8146952 51.6231246,80.5504095 C51.8863038,80.2878857 52.0354387,79.9231714 52.0354387,79.5514095 C52.0354387,79.1778857 51.8863038,78.8149333 51.6231246,78.5524095 C51.3617,78.2881238 50.9985127,78.1383619 50.6283073,78.1383619" id="Fill-17" fill="#7D5FFF"></path>
                        <path d="M69.2487614,58.344419 L69.2487614,84.0770381 C69.2487614,89.0138952 73.2490851,93.0310381 78.1652724,93.0310381 C83.0832142,93.0310381 87.0817834,89.0138952 87.0817834,84.0770381 L87.0817834,58.344419 L98.2879533,58.344419 L98.2879533,84.0770381 C98.2879533,89.0138952 102.288277,93.0310381 107.206219,93.0310381 C112.122406,93.0310381 116.12273,89.0138952 116.12273,84.0770381 L116.12273,58.344419 L126.237583,58.344419 C127.944739,58.344419 129.334325,59.7398476 129.334325,61.454181 L129.334325,94.6326095 C129.334325,96.3487048 127.944739,97.7441333 126.237583,97.7441333 L30.0929614,97.7441333 C28.3858057,97.7441333 26.9962196,96.3487048 26.9962196,94.6326095 L26.9962196,61.454181 C26.9962196,59.7398476 28.3858057,58.344419 30.0929614,58.344419 L40.2095695,58.344419 L40.2095695,84.0770381 C40.2095695,89.0138952 44.2098932,93.0310381 49.1260805,93.0310381 C54.0422677,93.0310381 58.0425914,89.0138952 58.0425914,84.0770381 L58.0425914,58.344419 L69.2487614,58.344419 Z M84.2675205,67.2385143 L84.2675205,84.0770381 C84.2675205,87.4546095 81.530457,90.203181 78.1652724,90.203181 C74.8018423,90.203181 72.0647787,87.4546095 72.0647787,84.0770381 L72.0647787,66.2218952 C72.1823321,66.2870857 72.30164,66.3575619 72.4314751,66.4368476 C73.1385498,66.8632286 74.0175683,67.3918 75.6580519,67.3918 C77.3002901,67.3918 78.1793086,66.8632286 78.8863834,66.4368476 C79.4390597,66.1038476 79.8040015,65.8853714 80.6654747,65.8853714 C81.5287024,65.8853714 81.8936442,66.1056095 82.4463205,66.4368476 C82.9182886,66.7205143 83.4674558,67.0499905 84.2675205,67.2385143 L84.2675205,67.2385143 Z M83.8938061,64.0124667 C83.1884859,63.5860857 82.3077128,63.0575143 80.6654747,63.0575143 C79.0249911,63.0575143 78.144218,63.5860857 77.4371433,64.0124667 C76.884467,64.3454667 76.5212797,64.5657048 75.6580519,64.5657048 C74.7983333,64.5657048 74.4333914,64.3454667 73.8824697,64.0124667 C73.4122562,63.7288 72.8630889,63.3993238 72.0647787,63.2108 L72.0647787,58.344419 L84.2675205,58.344419 L84.2675205,64.229181 C84.1482126,64.1639905 84.0271502,64.0917524 83.8938061,64.0124667 L83.8938061,64.0124667 Z M84.5657903,40.2619905 C84.3745467,40.7588476 84.2675205,41.2979905 84.2675205,41.8635619 L84.2675205,55.5165619 L72.0647787,55.5165619 L72.0647787,41.8635619 C72.0647787,41.2979905 71.9577525,40.7588476 71.7647545,40.2619905 L84.5657903,40.2619905 Z M113.306712,58.344419 L113.306712,84.0770381 C113.306712,87.4546095 110.569649,90.203181 107.206219,90.203181 C103.841034,90.203181 101.103971,87.4546095 101.103971,84.0770381 L101.103971,58.344419 L113.306712,58.344419 Z M101.103971,55.5165619 L101.103971,52.6499429 C101.223279,52.7133714 101.342586,52.7856095 101.472422,52.8631333 C102.177742,53.2895143 103.05676,53.8198476 104.697244,53.8198476 C106.339482,53.8198476 107.218501,53.2895143 107.925575,52.8631333 C108.478252,52.5318952 108.843193,52.3116571 109.706421,52.3116571 C110.567894,52.3116571 110.932836,52.5318952 111.485512,52.8631333 C111.95748,53.1485619 112.506648,53.4762762 113.306712,53.6648 L113.306712,55.5165619 L101.103971,55.5165619 Z M113.606737,40.2619905 C113.413739,40.7588476 113.306712,41.2979905 113.306712,41.8635619 L113.306712,50.6572286 C113.18565,50.5902762 113.066342,50.5180381 112.934753,50.4387524 C112.227678,50.0123714 111.346905,49.4838 109.706421,49.4838 C108.064183,49.4838 107.185164,50.0123714 106.47809,50.4387524 C105.925413,50.7717524 105.558717,50.9919905 104.697244,50.9919905 C103.837525,50.9919905 103.472583,50.7717524 102.921662,50.4405143 C102.451448,50.1550857 101.902281,49.8273714 101.103971,49.6388476 L101.103971,41.8635619 C101.103971,41.2979905 100.996944,40.7588476 100.803946,40.2619905 L113.606737,40.2619905 Z M55.2265741,64.2221333 L55.2265741,84.0770381 C55.2265741,87.4546095 52.4895105,90.203181 49.1260805,90.203181 C45.7608959,90.203181 43.0255868,87.4546095 43.0255868,84.0770381 L43.0255868,63.2055143 C43.1431402,63.2707048 43.2624481,63.341181 43.3922832,63.4204667 C44.0976034,63.8450857 44.9766219,64.375419 46.61886,64.375419 C48.2593437,64.375419 49.1401167,63.8468476 49.8471914,63.4204667 C50.3998677,63.0892286 50.763055,62.8689905 51.6262828,62.8689905 C52.4895105,62.8689905 52.8544523,63.0892286 53.4071286,63.4204667 C53.8790966,63.7041333 54.4282639,64.0336095 55.2265741,64.2221333 L55.2265741,64.2221333 Z M54.8546142,60.9960857 C54.1475394,60.5697048 53.2685209,60.0411333 51.6262828,60.0411333 C49.9840446,60.0411333 49.1050261,60.5697048 48.3979514,60.9960857 C47.8452751,61.3290857 47.4803333,61.5475619 46.61886,61.5475619 C45.7591413,61.5475619 45.3941995,61.3290857 44.8432778,60.9960857 C44.3730643,60.712419 43.823897,60.3829429 43.0255868,60.194419 L43.0255868,58.344419 L55.2265741,58.344419 L55.2265741,61.2128 C55.1072662,61.1476095 54.9862038,61.0753714 54.8546142,60.9960857 L54.8546142,60.9960857 Z M55.5283529,40.2619905 C55.3336003,40.7588476 55.2265741,41.2979905 55.2265741,41.8635619 L55.2265741,55.5165619 L43.0255868,55.5165619 L43.0255868,41.8635619 C43.0255868,41.2979905 42.9185606,40.7588476 42.7255625,40.2619905 L55.5283529,40.2619905 Z M38.6147036,37.4341333 C37.8356932,37.4341333 37.2058176,38.0666571 37.2058176,38.847181 C37.2058176,39.6277048 37.8356932,40.2619905 38.6147036,40.2619905 C39.4937221,40.2619905 40.2095695,40.9808476 40.2095695,41.8635619 L40.2095695,55.5165619 L30.0929614,55.5165619 C26.8330485,55.5165619 24.1802022,58.1805619 24.1802022,61.454181 L24.1802022,94.6326095 C24.1802022,97.9079905 26.8330485,100.57199 30.0929614,100.57199 L30.1877059,100.57199 L30.1877059,102.173562 C30.1877059,102.954086 30.8175814,103.588371 31.5965918,103.588371 C32.3738477,103.588371 33.0037232,102.954086 33.0037232,102.173562 L33.0037232,100.57199 L123.328576,100.57199 L123.328576,102.173562 C123.328576,102.954086 123.958452,103.588371 124.735707,103.588371 C125.512963,103.588371 126.144593,102.954086 126.144593,102.173562 L126.144593,100.57199 L126.237583,100.57199 C129.497496,100.57199 132.150343,97.9079905 132.150343,94.6326095 L132.150343,61.454181 C132.150343,58.1805619 129.497496,55.5165619 126.237583,55.5165619 L116.12273,55.5165619 L116.12273,41.8635619 C116.12273,40.9808476 116.838577,40.2619905 117.717596,40.2619905 C118.494852,40.2619905 119.126482,39.6277048 119.126482,38.847181 C119.126482,38.0666571 118.494852,37.4341333 117.717596,37.4341333 L96.6930874,37.4341333 C95.9158315,37.4341333 95.2842015,38.0666571 95.2842015,38.847181 C95.2842015,39.6277048 95.9158315,40.2619905 96.6930874,40.2619905 C97.5721059,40.2619905 98.2879533,40.9808476 98.2879533,41.8635619 L98.2879533,55.5165619 L87.0817834,55.5165619 L87.0817834,41.8635619 C87.0817834,40.9808476 87.7993853,40.2619905 88.6784038,40.2619905 C89.4556597,40.2619905 90.0855352,39.6277048 90.0855352,38.847181 C90.0855352,38.0666571 89.4556597,37.4341333 88.6784038,37.4341333 L67.652141,37.4341333 C66.8748851,37.4341333 66.2450096,38.0666571 66.2450096,38.847181 C66.2450096,39.6277048 66.8748851,40.2619905 67.652141,40.2619905 C68.532914,40.2619905 69.2487614,40.9808476 69.2487614,41.8635619 L69.2487614,55.5165619 L58.0425914,55.5165619 L58.0425914,41.8635619 C58.0425914,40.9808476 58.7584388,40.2619905 59.6392119,40.2619905 C60.4164677,40.2619905 61.0463433,39.6277048 61.0463433,38.847181 C61.0463433,38.0666571 60.4164677,37.4341333 59.6392119,37.4341333 L38.6147036,37.4341333 Z" id="Fill-19" fill="#19BC9C"></path>
                        <path d="M55.3974651,16.9514619 L142.769447,16.9514619 L142.769447,9.46336667 L55.3974651,9.46336667 L55.3974651,16.9514619 Z M142.769447,107.249081 L13.9677969,107.249081 L13.9677969,20.4752714 L42.8543449,20.4752714 L42.8543449,23.5586048 C42.8543449,24.5311762 43.6386189,25.3205095 44.6088728,25.3205095 L47.3704998,25.3205095 L47.3704998,30.1657476 C47.3704998,31.138319 48.1547738,31.9276524 49.1250277,31.9276524 C50.0952817,31.9276524 50.8795557,31.138319 50.8795557,30.1657476 L50.8795557,25.3205095 L53.6429372,25.3205095 C54.6131911,25.3205095 55.3974651,24.5311762 55.3974651,23.5586048 L55.3974651,20.4752714 L142.769447,20.4752714 L142.769447,107.249081 Z M13.9677969,16.9514619 L42.8543449,16.9514619 L42.8543449,9.46336667 L13.9677969,9.46336667 L13.9677969,16.9514619 Z M46.3634008,21.7967 L51.8884092,21.7967 L51.8884092,3.52398571 L46.3634008,3.52398571 L46.3634008,21.7967 Z M154.982716,107.249081 L146.278503,107.249081 L146.278503,7.7014619 C146.278503,6.72889048 145.494229,5.93955714 144.523975,5.93955714 L55.3974651,5.93955714 L55.3974651,1.76208095 C55.3974651,0.789509524 54.6131911,0.000176190476 53.6429372,0.000176190476 L44.6088728,0.000176190476 C43.6386189,0.000176190476 42.8543449,0.789509524 42.8543449,1.76208095 L42.8543449,5.93955714 L12.213269,5.93955714 C11.243015,5.93955714 10.458741,6.72889048 10.458741,7.7014619 L10.458741,107.249081 L1.75452794,107.249081 C0.784273988,107.249081 0,108.036652 0,109.010986 C0,109.985319 0.784273988,110.77289 1.75452794,110.77289 L12.213269,110.77289 L144.523975,110.77289 L154.982716,110.77289 C155.95297,110.77289 156.737244,109.985319 156.737244,109.010986 C156.737244,108.036652 155.95297,107.249081 154.982716,107.249081 L154.982716,107.249081 Z" id="Fill-21" fill="#19BC9C"></path>
                    </g>
                </g>
            </g>
        </g>
    </g>
</svg>