<?xml version="1.0" encoding="UTF-8" standalone="no"?>
<svg width="97px" height="110px" viewBox="0 0 97 110" version="1.1" xmlns="http://www.w3.org/2000/svg" xmlns:xlink="http://www.w3.org/1999/xlink">
    <!-- Generator: sketchtool 3.8.3 (29802) - http://www.bohemiancoding.com/sketch -->
    <title>659CFA09-5C88-474D-9B96-4A82750E8CB7</title>
    <desc>Created with sketchtool.</desc>
    <defs></defs>
    <g id="Page-1" stroke="none" stroke-width="1" fill="none" fill-rule="evenodd">
        <g id="Notable-Labs" transform="translate(-1392.000000, -1450.000000)">
            <g id="Group-14" transform="translate(114.000000, 1437.000000)">
                <g id="icon5" transform="translate(1278.000000, 13.000000)">
                    <g id="Stethoscope">
                        <path d="M81.6752071,61.54225 C76.0576569,61.54225 71.4554596,56.98825 71.4554596,51.359 C71.4554596,45.76275 76.0576569,41.206 81.6752071,41.206 C87.2899982,41.206 91.8370133,45.76275 91.8370133,51.359 C91.8370133,56.98825 87.2899982,61.54225 81.6752071,61.54225 M96.96896,51.359 C96.96896,42.96875 90.090496,36.13775 81.6752071,36.13775 C73.2461227,36.13775 66.3704178,42.96875 66.3704178,51.359 C66.3704178,58.9105 71.8776036,65.142 79.0981973,66.34375 L79.0981973,82.33775 C79.0981973,94.80075 68.9557049,104.907 56.4541724,104.907 C43.95264,104.907 33.7991111,94.78975 33.7991111,82.33775 L33.7439289,64.02275 C39.6732587,63.228 45.4701511,59.7795 50.6241707,53.8725 C51.377408,53.00075 51.6146916,51.88425 51.4850133,50.82 C58.2117262,41.9485 62.3917796,29.85125 62.3917796,20.56175 C62.3917796,6.2205 55.946496,4.72725 45.2770133,2.299 L45.2659769,2.266 C44.6093084,0.957 43.2849351,0 41.6763733,0 C39.4249387,0 37.6039253,1.815 37.6039253,4.03975 C37.6039253,6.28375 39.4249387,8.09875 41.6763733,8.09875 C42.5730844,8.09875 43.4118542,7.733 44.0712818,7.20775 L44.1678507,7.24075 C54.5255538,9.614 57.3150151,10.2575 57.3150151,20.56175 C57.3150151,28.73475 53.4357049,39.6825 47.5091342,47.58875 C46.5268907,47.641 45.5474062,48.07 44.8245191,48.87575 C41.7950151,52.36825 36.9582933,56.5565 31.2331378,56.5565 C25.5107413,56.5565 20.6712604,52.41225 17.6445156,48.93075 C16.9216284,48.125 15.9504213,47.685 14.9709369,47.63 C9.02229333,39.7045 5.140224,28.74575 5.140224,20.56175 C5.140224,10.24925 7.88829867,9.603 18.301184,7.24075 L18.3342933,7.20775 C19.0544213,7.733 19.8324907,8.09875 20.7788658,8.09875 C23.0330596,8.09875 24.8651093,6.28375 24.8651093,4.03975 C24.8540729,1.815 23.0330596,0 20.7788658,0 C19.1730631,0 17.8486898,0.957 17.1478756,2.266 L17.1368391,2.266 C6.45632,4.72725 0,6.1875 0,20.56175 C0,29.86225 4.19384889,42.00075 10.9922987,50.875 C10.8653796,51.93925 11.0916267,53.05575 11.844864,53.92475 C16.9961244,59.7905 22.7405938,63.228 28.6588871,64.01175 L28.6699236,82.3295 C28.6699236,97.592 41.1493831,110 56.4541724,110 C71.7589618,110 84.1859982,97.592 84.1859982,82.3295 L84.1859982,66.34375 C91.406592,65.142 96.96896,58.9105 96.96896,51.359" id="Fill-1" fill="#19BC9C"></path>
                        <path d="M81.6752071,43.7635 C77.4592853,43.7635 74.0214329,47.157 74.0214329,51.359 C74.0214329,55.59125 77.4592853,58.98475 81.6752071,58.98475 C85.8883698,58.98475 89.3262222,55.59125 89.3262222,51.359 C89.3262222,47.157 85.8883698,43.7635 81.6752071,43.7635" id="Fill-3" fill="#7D5FFF"></path>
                    </g>
                </g>
            </g>
        </g>
    </g>
</svg>