<?xml version="1.0" encoding="UTF-8" standalone="no"?>
<svg width="85px" height="118px" viewBox="0 0 85 118" version="1.1" xmlns="http://www.w3.org/2000/svg" xmlns:xlink="http://www.w3.org/1999/xlink">
    <!-- Generator: sketchtool 3.8.3 (29802) - http://www.bohemiancoding.com/sketch -->
    <title>B15F9A58-97A2-45D6-9783-6E6463D2D778</title>
    <desc>Created with sketchtool.</desc>
    <defs></defs>
    <g id="Page-1" stroke="none" stroke-width="1" fill="none" fill-rule="evenodd">
        <g id="Notable-Labs" transform="translate(-1101.000000, -1448.000000)">
            <g id="Group-14" transform="translate(114.000000, 1437.000000)">
                <g id="icon4" transform="translate(987.000000, 11.000000)">
                    <g id="Page-1">
                        <path d="M81.1940299,109.609225 C81.1940299,111.92017 79.3157836,113.800234 77.0077799,113.800234 L7.99222015,113.800234 C5.68421642,113.800234 3.80597015,111.92017 3.80597015,109.609225 L3.80597015,16.1305746 C3.80597015,13.8196295 5.68421642,11.9395655 7.99222015,11.9395655 L22.3277239,11.9395655 L22.3277239,16.1305746 C22.3277239,16.1728054 22.3302612,16.2147187 22.3315299,16.2569495 L10.0230224,16.2569495 C8.97098881,16.2569495 8.12003731,17.110456 8.12003731,18.1620979 L8.12003731,107.577701 C8.12003731,108.629343 8.97098881,109.48285 10.0230224,109.48285 L74.9769776,109.48285 C76.0290112,109.48285 76.8799627,108.629343 76.8799627,107.577701 L76.8799627,18.1620979 C76.8799627,17.110456 76.0290112,16.2569495 74.9769776,16.2569495 L62.6684701,16.2569495 C62.6697388,16.2147187 62.6722761,16.1728054 62.6722761,16.1305746 L62.6722761,11.9395655 L77.0077799,11.9395655 C79.3157836,11.9395655 81.1940299,13.8196295 81.1940299,16.1305746 L81.1940299,109.609225 Z M23.8145896,20.0672464 C24.9084888,21.3125785 26.5092164,22.1003574 28.2907276,22.1003574 L56.7092724,22.1003574 C58.4907836,22.1003574 60.0915112,21.3125785 61.1854104,20.0672464 L73.0739925,20.0672464 L73.0739925,105.672553 L11.9260075,105.672553 L11.9260075,20.0672464 L23.8145896,20.0672464 Z M26.133694,10.034417 C26.133694,8.84369922 27.1013619,7.87493122 28.2907276,7.87493122 L35.5062127,7.87493122 C36.1839925,7.87493122 36.810709,7.51390558 37.1516604,6.92838995 C38.2864739,4.97624782 40.286194,3.81029695 42.5,3.81029695 C44.713806,3.81029695 46.7135261,4.97624782 47.8483396,6.92711985 C48.189291,7.51390558 48.8160075,7.87493122 49.4925187,7.87493122 L56.7092724,7.87493122 C57.8986381,7.87493122 58.866306,8.84369922 58.866306,10.034417 L58.866306,16.1305746 C58.866306,17.3212924 57.8986381,18.2900604 56.7092724,18.2900604 L28.2907276,18.2900604 C27.1013619,18.2900604 26.133694,17.3212924 26.133694,16.1305746 L26.133694,10.034417 Z M77.0077799,8.12926854 L62.3586007,8.12926854 C61.5622015,5.76878958 59.331903,4.06463427 56.7092724,4.06463427 L50.5134701,4.06463427 C48.6339552,1.53300947 45.6554664,-2.84217094e-14 42.5,-2.84217094e-14 C39.3445336,-2.84217094e-14 36.3660448,1.53300947 34.4852612,4.06463427 L28.2907276,4.06463427 C25.668097,4.06463427 23.4377985,5.76878958 22.6413993,8.12926854 L7.99222015,8.12926854 C3.58554104,8.12926854 0,11.7185683 0,16.1305746 L0,109.609225 C0,114.021231 3.58554104,117.610531 7.99222015,117.610531 L77.0077799,117.610531 C81.414459,117.610531 85,114.021231 85,109.609225 L85,16.1305746 C85,11.7185683 81.414459,8.12926854 77.0077799,8.12926854 L77.0077799,8.12926854 Z" id="Fill-1" fill="#19BC9C"></path>
                        <path d="M42.5,11.9395655 C43.0017537,11.9395655 43.4924067,11.7360321 43.8441418,11.3800869 C44.1996828,11.0266818 44.4029851,10.534201 44.4029851,10.034417 C44.4029851,9.53304544 44.1996828,9.04088209 43.8441418,8.68715952 C43.4924067,8.33121428 43.0030224,8.12926854 42.5,8.12926854 C41.9969776,8.12926854 41.5075933,8.33121428 41.1558582,8.68715952 C40.8003172,9.04088209 40.5970149,9.53082277 40.5970149,10.034417 C40.5970149,10.5367412 40.8003172,11.0266818 41.1558582,11.3800869 C41.5075933,11.7360321 41.9969776,11.9395655 42.5,11.9395655" id="Fill-3" fill="#19BC9C"></path>
                        <path d="M30.3215299,40.3888301 L64.8277239,40.3888301 C65.8797575,40.3888301 66.730709,39.5356411 66.730709,38.4836817 C66.730709,37.4320397 65.8797575,36.5785332 64.8277239,36.5785332 L30.3215299,36.5785332 C29.2694963,36.5785332 28.4185448,37.4320397 28.4185448,38.4836817 C28.4185448,39.5356411 29.2694963,40.3888301 30.3215299,40.3888301" id="Fill-5" fill="#19BC9C"></path>
                        <path d="M30.3215299,60.7104139 L64.8277239,60.7104139 C65.8797575,60.7104139 66.730709,59.8572249 66.730709,58.8052654 C66.730709,57.7536234 65.8797575,56.9001169 64.8277239,56.9001169 L30.3215299,56.9001169 C29.2694963,56.9001169 28.4185448,57.7536234 28.4185448,58.8052654 C28.4185448,59.8572249 29.2694963,60.7104139 30.3215299,60.7104139" id="Fill-7" fill="#19BC9C"></path>
                        <path d="M30.3215299,81.0319976 L36.4107649,81.0319976 C37.4612127,81.0319976 38.31375,80.1788086 38.31375,79.1268491 C38.31375,78.0752072 37.4612127,77.2217006 36.4107649,77.2217006 L30.3215299,77.2217006 C29.2694963,77.2217006 28.4185448,78.0752072 28.4185448,79.1268491 C28.4185448,80.1788086 29.2694963,81.0319976 30.3215299,81.0319976" id="Fill-9" fill="#19BC9C"></path>
                        <path d="M30.3215299,50.549622 L64.8277239,50.549622 C65.8797575,50.549622 66.730709,49.696433 66.730709,48.6444735 C66.730709,47.5928316 65.8797575,46.739325 64.8277239,46.739325 L30.3215299,46.739325 C29.2694963,46.739325 28.4185448,47.5928316 28.4185448,48.6444735 C28.4185448,49.696433 29.2694963,50.549622 30.3215299,50.549622" id="Fill-11" fill="#19BC9C"></path>
                        <path d="M30.3215299,70.8712057 L38.4399813,70.8712057 C39.4920149,70.8712057 40.3429664,70.0180167 40.3429664,68.9660573 C40.3429664,67.9144153 39.4920149,67.0609088 38.4399813,67.0609088 L30.3215299,67.0609088 C29.2694963,67.0609088 28.4185448,67.9144153 28.4185448,68.9660573 C28.4185448,70.0180167 29.2694963,70.8712057 30.3215299,70.8712057" id="Fill-13" fill="#19BC9C"></path>
                        <path d="M30.3215299,91.1927895 L38.4399813,91.1927895 C39.4920149,91.1927895 40.3429664,90.3396005 40.3429664,89.287641 C40.3429664,88.235999 39.4920149,87.3824925 38.4399813,87.3824925 L30.3215299,87.3824925 C29.2694963,87.3824925 28.4185448,88.235999 28.4185448,89.287641 C28.4185448,90.3396005 29.2694963,91.1927895 30.3215299,91.1927895" id="Fill-15" fill="#19BC9C"></path>
                        <path d="M20.1722761,40.3888301 L22.2014925,40.3888301 C23.2519403,40.3888301 24.1044776,39.5356411 24.1044776,38.4836817 C24.1044776,37.4320397 23.2519403,36.5785332 22.2014925,36.5785332 L20.1722761,36.5785332 C19.1202425,36.5785332 18.269291,37.4320397 18.269291,38.4836817 C18.269291,39.5356411 19.1202425,40.3888301 20.1722761,40.3888301" id="Fill-17" fill="#19BC9C"></path>
                        <path d="M20.1722761,60.7104139 L22.2014925,60.7104139 C23.2519403,60.7104139 24.1044776,59.8572249 24.1044776,58.8052654 C24.1044776,57.7536234 23.2519403,56.9001169 22.2014925,56.9001169 L20.1722761,56.9001169 C19.1202425,56.9001169 18.269291,57.7536234 18.269291,58.8052654 C18.269291,59.8572249 19.1202425,60.7104139 20.1722761,60.7104139" id="Fill-19" fill="#19BC9C"></path>
                        <path d="M20.1722761,81.0319976 L22.2014925,81.0319976 C23.2519403,81.0319976 24.1044776,80.1788086 24.1044776,79.1268491 C24.1044776,78.0752072 23.2519403,77.2217006 22.2014925,77.2217006 L20.1722761,77.2217006 C19.1202425,77.2217006 18.269291,78.0752072 18.269291,79.1268491 C18.269291,80.1788086 19.1202425,81.0319976 20.1722761,81.0319976" id="Fill-21" fill="#19BC9C"></path>
                        <path d="M20.1722761,50.549622 L22.2014925,50.549622 C23.2519403,50.549622 24.1044776,49.696433 24.1044776,48.6444735 C24.1044776,47.5928316 23.2519403,46.739325 22.2014925,46.739325 L20.1722761,46.739325 C19.1202425,46.739325 18.269291,47.5928316 18.269291,48.6444735 C18.269291,49.696433 19.1202425,50.549622 20.1722761,50.549622" id="Fill-23" fill="#19BC9C"></path>
                        <path d="M20.1722761,70.8712057 L22.2014925,70.8712057 C23.2519403,70.8712057 24.1044776,70.0180167 24.1044776,68.9660573 C24.1044776,67.9144153 23.2519403,67.0609088 22.2014925,67.0609088 L20.1722761,67.0609088 C19.1202425,67.0609088 18.269291,67.9144153 18.269291,68.9660573 C18.269291,70.0180167 19.1202425,70.8712057 20.1722761,70.8712057" id="Fill-25" fill="#19BC9C"></path>
                        <path d="M20.1722761,91.1927895 L22.2014925,91.1927895 C23.2519403,91.1927895 24.1044776,90.3396005 24.1044776,89.287641 C24.1044776,88.235999 23.2519403,87.3824925 22.2014925,87.3824925 L20.1722761,87.3824925 C19.1202425,87.3824925 18.269291,88.235999 18.269291,89.287641 C18.269291,90.3396005 19.1202425,91.1927895 20.1722761,91.1927895" id="Fill-27" fill="#19BC9C"></path>
                        <path d="M61.0131903,84.4069681 L56.5814552,78.4917996 L56.5814552,71.0956957 C60.2142537,71.9590455 62.9247388,75.231138 62.9247388,79.1268491 C62.9247388,81.133923 62.2063619,82.9742965 61.0131903,84.4069681 M54.6784701,87.3824925 C50.7871828,87.3824925 47.518806,84.6686085 46.6564366,81.0319976 L53.7269776,81.0319976 L57.9690485,86.695369 C56.9607836,87.1357758 55.8481716,87.3824925 54.6784701,87.3824925 M52.7754851,71.0956957 L52.7754851,77.2217006 L46.6564366,77.2217006 C47.3738619,74.1979125 49.7551306,71.8139367 52.7754851,71.0956957 M54.6784701,67.0609088 C48.0329291,67.0609088 42.6262313,72.4737531 42.6262313,79.1268491 C42.6262313,85.7799451 48.0329291,91.1927895 54.6784701,91.1927895 C57.3645336,91.1927895 59.8472948,90.308483 61.8533582,88.8164343 C61.8717537,88.8027807 61.8917351,88.7942075 61.9101306,88.780554 C61.9608769,88.7418159 62.009403,88.7011728 62.0550746,88.6602121 C64.8971828,86.4499223 66.730709,83.0003335 66.730709,79.1268491 C66.730709,72.4737531 61.3243284,67.0609088 54.6784701,67.0609088" id="Fill-29" fill="#7D5FFF"></path>
                    </g>
                </g>
            </g>
        </g>
    </g>
</svg>